<svg xmlns="http://www.w3.org/2000/svg" viewBox="0 0 112.9 112"><path d="M107.3 108.5H5.9c-1 0-1.9-.8-1.9-1.9V5.3c0-1 .8-1.9 1.9-1.9h101.4c1 0 1.9.8 1.9 1.9v101.4c0 1-.9 1.8-1.9 1.8z" fill="#dd0e0e" stroke="#000" stroke-width="5" stroke-miterlimit="10"/><path d="M18.5 27.9C38.7 46.4 58.8 64.8 79 83.2c2.8 2.6 5.7 5.2 8.5 7.8 4.7 4.3 11.8-2.7 7.1-7.1-20.1-18.4-40.3-36.8-60.5-55.2-2.8-2.6-5.7-5.2-8.5-7.8-4.7-4.4-11.8 2.7-7.1 7z"/><path d="M87.5 20.9C67.4 39.3 47.2 57.7 27.1 76.2c-2.8 2.6-5.7 5.2-8.5 7.8-4.8 4.4 2.3 11.4 7.1 7.1C45.9 72.7 66 54.2 86.2 35.8c2.8-2.6 5.7-5.2 8.5-7.8 4.7-4.4-2.4-11.5-7.2-7.1z"/></svg>