<?xml version="1.0" encoding="utf-8"?>
<!-- Generator: Adobe Illustrator 21.0.2, SVG Export Plug-In . SVG Version: 6.00 Build 0)  -->
<svg version="1.1" id="Layer_1" xmlns="http://www.w3.org/2000/svg" xmlns:xlink="http://www.w3.org/1999/xlink" x="0px" y="0px"
	 viewBox="0 0 112 113" style="enable-background:new 0 0 112 113;" xml:space="preserve">
<style type="text/css">
	.st0{fill:#DD0E0E;}
</style>
<g id="Hamburger_1_">
	<g>
		<path class="st0" d="M106.7,108.6H5.3c-1,0-1.9-0.8-1.9-1.9V5.4c0-1,0.8-1.9,1.9-1.9h101.4c1,0,1.9,0.8,1.9,1.9v101.4
			C108.6,107.8,107.7,108.6,106.7,108.6z"/>
		<path d="M106.7,111.1H5.3c-2.4,0-4.4-2-4.4-4.4V5.4c0-2.4,2-4.4,4.4-4.4h101.4c2.4,0,4.4,2,4.4,4.4v101.4
			C111.1,109.2,109.1,111.1,106.7,111.1z M5.9,106.1h100.2V6H5.9V106.1z"/>
	</g>
	<g>
		<g>
			<path d="M21.5,61.1c23.3,0,46.7,0,70,0c6.4,0,6.4-10,0-10c-23.3,0-46.7,0-70,0C15.1,51.1,15.1,61.1,21.5,61.1L21.5,61.1z"/>
		</g>
	</g>
	<g>
		<g>
			<path d="M21.5,82.9c23.3,0,46.7,0,70,0c6.4,0,6.4-10,0-10c-23.3,0-46.7,0-70,0C15.1,72.9,15.1,82.9,21.5,82.9L21.5,82.9z"/>
		</g>
	</g>
	<g>
		<g>
			<path d="M21.5,39.3c23.3,0,46.7,0,70,0c6.4,0,6.4-10,0-10c-23.3,0-46.7,0-70,0C15.1,29.3,15.1,39.3,21.5,39.3L21.5,39.3z"/>
		</g>
	</g>
</g>
</svg>