<?xml version="1.0" encoding="utf-8"?>
<!-- Generator: Adobe Illustrator 21.0.2, SVG Export Plug-In . SVG Version: 6.00 Build 0)  -->
<svg version="1.1" id="Layer_1" xmlns="http://www.w3.org/2000/svg" xmlns:xlink="http://www.w3.org/1999/xlink" x="0px" y="0px"
	 viewBox="0 0 116 117" style="enable-background:new 0 0 116 117;" xml:space="preserve">
<style type="text/css">
	.st0{fill:#FFFFFF;}
</style>
<g>
	<circle cx="58.1" cy="58.2" r="55.9"/>
	<g>
		<path class="st0" d="M79.8,91.5H36.4c-5.7,0-10.3-4.7-10.3-10.3v-46c0-5.7,4.6-10.3,10.3-10.3h43.3c5.7,0,10.3,4.6,10.3,10.3v46
			C90.1,86.8,85.4,91.5,79.8,91.5z"/>
		<path d="M79.5,83.5H36.6c-1.6,0-2.9-1.3-2.9-2.9V52.2h48.7v28.5C82.4,82.2,81.1,83.5,79.5,83.5z"/>
		<path d="M81.3,44.6h-7.6c-1.1,0-2-0.9-2-2v-7.9c0-1.1,0.9-2,2-2h7.6c1.1,0,2,0.9,2,2v7.9C83.3,43.7,82.4,44.6,81.3,44.6z"/>
		<circle class="st0" cx="58.1" cy="59.7" r="19.4"/>
		<circle cx="58.1" cy="59.7" r="12.2"/>
	</g>
</g>
</svg>