<svg xmlns="http://www.w3.org/2000/svg" viewBox="0 0 524.5 289.4"><style>.st0{fill:#fff}</style><g id="Layer_1"><g id="R_2_"><path class="st0" d="M9.2 9.7h35.2v149.9H9.2zM9.2 167h35.2v112.9H9.2zM58.3 9.7V43h36.1s19.4 2.8 18.5 17.6c-.9 14.8 0 50.9 0 50.9s1.8 13-15.8 14.8H58.3v33.3h60.1s29.6-5.6 32.4-37.9c2.8-32.4 0-78.7 0-78.7s.9-33.3-32.4-33.3H58.3zM127.7 167L152 279.9h-42.8L88.8 167z"/></g><g id="J_2_"><path class="st0" d="M480 161l-.1-151.5h38.9L519 161zM480 170h41c-2.6-1.2 15.8 122-117.6 109.4l-.9-39.6c.1-.1 84.5 12.2 77.5-69.8zM392.4 9.5H472v38.9h-79.6z"/></g><path id="Logo_simple_2_" class="st0" d="M366.2 164.1c8.5-18.7 7-35.9 5.9-43l33.5-52.6-41.6 35.6c-13.3-18.5-31.1-18.5-31.1-18.5-38.4-4.3-44.8 32-44.8 32s-6.4-36.3-44.8-32c0 0-19.1 0-32.5 20.6l-46.5-39.8 39.1 61.5c-.4 7.1 0 17.4 3.7 28.7l-36.4 57.2 45.8-39.3c9 11.9 30.6 35.7 71.6 58.5 36.3-20.2 57.4-41.2 68-54l43 36.9-32.9-51.8z"/></g></svg>