<svg xmlns="http://www.w3.org/2000/svg" viewBox="0 0 522 277"><path d="M6 4.3h35.2v149.9H6zM6 161.6h35.2v112.9H6zM55 4.3v33.3h36.1s19.4 2.8 18.5 17.6 0 50.9 0 50.9 1.8 13-15.8 14.8H55v33.3h60.1s29.6-5.6 32.4-37.9 0-78.7 0-78.7.9-33.3-32.4-33.3H55zM124.4 161.6l24.4 112.8h-42.9L85.6 161.6z"/><g><path d="M476.8 155.5L476.7 4h38.8l.3 151.5zM476.8 164.5h41c-2.6-1.2 15.8 122-117.6 109.4l-.9-39.6c0-.1 84.5 12.2 77.5-69.8zM389.1 4h79.6v38.9h-79.6z"/></g><path d="M362.9 158.6c8.5-18.7 7-35.9 5.9-43L402.3 63l-41.5 35.6c-13.3-18.5-31.1-18.5-31.1-18.5-38.4-4.3-44.8 32-44.8 32s-6.4-36.3-44.8-32c0 0-19.1 0-32.5 20.6L161 60.9l39.1 61.5c-.4 7.1 0 17.4 3.7 28.7l-36.4 57.2 45.8-39.3c9 11.9 30.6 35.7 71.6 58.5 36.3-20.2 57.4-41.2 68-54l43 36.9-32.9-51.8z"/></svg>