<?xml version="1.0" encoding="utf-8"?>
<!-- Generator: Adobe Illustrator 21.0.2, SVG Export Plug-In . SVG Version: 6.00 Build 0)  -->
<svg version="1.1" id="Layer_1" xmlns="http://www.w3.org/2000/svg" xmlns:xlink="http://www.w3.org/1999/xlink" x="0px" y="0px"
	 viewBox="0 0 116 116" style="enable-background:new 0 0 116 116;" xml:space="preserve">
<style type="text/css">
	.st0{fill:#FFFFFF;}
</style>
<g>
	<g>
		<circle cx="58" cy="57.7" r="55.9"/>
	</g>
	<g>
		<path class="st0" d="M72.6,38.8c8.3,2.5,6.8,8.8,6.8,8.8c0,12.5-19.9,8.8-19.9,8.8c-2.7,16.8,6.2,17.8,6.2,17.8
			c10-0.8,11.9,4.5,11.9,4.5c2.2,7-1.4,10.8-1.4,10.8c-5,5.8-17.5,1.5-17.5,1.5c-17.8-6.3-18-21.8-18-21.8V27.8c0,0,1.5-8.5,9.8-7.8
			s8.3,8.3,8.3,8.3v9.8L72.6,38.8z"/>
		<path d="M67.7,92.6c-4.5,0-8.9-1.4-9.2-1.5c-17.7-6.2-18.2-21.8-18.2-22V27.8c0-0.1,1.6-8.8,10-8c8.4,0.8,8.5,8.4,8.5,8.5v9.5
			l13.8,0.7c8.4,2.5,6.9,9,6.9,9c0,2.7-1,4.9-2.9,6.5c-5.1,4.3-15.3,2.8-17.1,2.5c-1,6.5-0.3,11.5,1.9,14.5c1.8,2.4,4.1,2.7,4.1,2.7
			c10-0.8,12,4.4,12.1,4.7c2.2,7.1-1.3,10.9-1.5,11C74.2,91.9,70.9,92.6,67.7,92.6z M49.3,20.3c-7.1,0-8.5,7.5-8.5,7.6l0,41.2
			c0,0.1,0.5,15.4,17.8,21.5c0.1,0,12.4,4.1,17.2-1.4c0,0,3.5-3.7,1.4-10.5c0,0-2-5-11.7-4.3c-0.1,0-2.5-0.3-4.5-2.9
			c-2.4-3.2-3.1-8.3-2-15.2l0-0.3l0.3,0c0.1,0,11.6,2.1,16.9-2.3c1.8-1.5,2.7-3.6,2.7-6.2c0.1-0.3,1.3-6.1-6.5-8.5l-14.2-0.8v-10
			c0-0.3-0.1-7.3-8-8C50,20.3,49.6,20.3,49.3,20.3z"/>
	</g>
</g>
</svg>